<svg xmlns="http://www.w3.org/2000/svg" xmlns:xlink="http://www.w3.org/1999/xlink" width="155.667" height="217" viewBox="0 0 155.667 217"><defs><style>.a{fill:url(#a);}.b{fill:#60c3ff;font-size:48px;font-family:SegoeUI-Semibold, Segoe UI;font-weight:600;}</style><linearGradient id="a" x1="0.5" x2="0.5" y2="1" gradientUnits="objectBoundingBox"><stop offset="0" stop-color="#5574f7"/><stop offset="1" stop-color="#60c3ff"/></linearGradient></defs><g transform="translate(-110 -199)"><g transform="translate(110 199)"><path class="a" d="M77.833,0a77.833,77.833,0,1,0,77.833,77.833A77.923,77.923,0,0,0,77.833,0Zm0,142.131a64.3,64.3,0,1,1,64.3-64.3A64.373,64.373,0,0,1,77.833,142.131Z"/><g transform="translate(40.604 40.606)"><path class="a" d="M201.45,128.989a3.358,3.358,0,0,0-3.729-.717l-47.377,20.3a3.391,3.391,0,0,0-1.78,1.78l-20.3,47.377a3.38,3.38,0,0,0,.717,3.729,3.433,3.433,0,0,0,2.4.981,3.56,3.56,0,0,0,1.333-.271l47.377-20.3a3.414,3.414,0,0,0,1.78-1.78l20.3-47.377A3.39,3.39,0,0,0,201.45,128.989Zm-36.237,43a6.768,6.768,0,1,1,6.768-6.768A6.779,6.779,0,0,1,165.213,171.987Z" transform="translate(-127.984 -127.991)"/></g></g><text class="b" transform="translate(113.994 404)"><tspan x="0" y="0">kinetic</tspan></text></g></svg>